<svg width="16" height="16" viewBox="0 0 16 16" fill="none" xmlns="http://www.w3.org/2000/svg">
<path d="M14.8534 4.64289C14.6789 3.99621 14.1649 3.48691 13.5122 3.31407C12.3291 3 7.5852 3 7.5852 3C7.5852 3 2.84131 3 1.65822 3.31407C1.00553 3.48694 0.491472 3.99621 0.317 4.64289C0 5.81504 0 8.26061 0 8.26061C0 8.26061 0 10.7062 0.317 11.8783C0.491472 12.525 1.00553 13.0131 1.65822 13.1859C2.84131 13.5 7.5852 13.5 7.5852 13.5C7.5852 13.5 12.3291 13.5 13.5122 13.1859C14.1649 13.0131 14.6789 12.525 14.8534 11.8783C15.1704 10.7062 15.1704 8.26061 15.1704 8.26061C15.1704 8.26061 15.1704 5.81504 14.8534 4.64289ZM6.03367 10.481V6.04021L9.99864 8.26066L6.03367 10.481Z" fill="#1C1C1C"/>
</svg>
