<svg width="16" height="17" viewBox="0 0 16 17" fill="none" xmlns="http://www.w3.org/2000/svg">
<g clip-path="url(#clip0_108_4500)">
<path d="M6.50938 8.25C6.89687 7.66563 6.98125 7.08437 7 6.5C6.98438 5.91563 6.89687 5.33437 6.50938 4.75C6.25938 4.375 5.725 4.39375 5.4875 4.75C5.1 5.33437 5.01562 5.91563 4.99687 6.5C5.0125 7.08437 5.1 7.66563 5.4875 8.25C5.74063 8.625 6.275 8.60625 6.50938 8.25ZM10.5094 8.25C10.8969 7.66563 10.9812 7.08437 11 6.5C10.9844 5.91563 10.8969 5.33437 10.5094 4.75C10.2594 4.375 9.725 4.39375 9.4875 4.75C9.1 5.33437 9.01562 5.91563 8.99687 6.5C9.0125 7.08437 9.1 7.66563 9.4875 8.25C9.74063 8.625 10.275 8.60625 10.5094 8.25ZM8 0.75C3.71875 0.75 0.25 4.21875 0.25 8.5C0.25 12.7812 3.71875 16.25 8 16.25C12.2812 16.25 15.75 12.7812 15.75 8.5C15.75 4.21875 12.2812 0.75 8 0.75ZM8 14.75C4.55312 14.75 1.75 11.9469 1.75 8.5C1.75 5.05312 4.55312 2.25 8 2.25C11.4469 2.25 14.25 5.05312 14.25 8.5C14.25 11.9469 11.4469 14.75 8 14.75ZM11.3 10.0188C10.4906 10.2781 9.2875 10.4281 8 10.4281C6.7125 10.4281 5.5125 10.2781 4.7 10.0188C4.39062 9.92188 4.09375 10.1844 4.14687 10.4969C4.39375 11.9719 6.375 12.9969 8 12.9969C9.625 12.9969 11.6031 11.9688 11.8531 10.4969C11.9031 10.1906 11.6125 9.92188 11.3 10.0188Z" fill="#1C1C1C"/>
</g>
<defs>
<clipPath id="clip0_108_4500">
<rect width="16" height="16" fill="white" transform="translate(0 0.5)"/>
</clipPath>
</defs>
</svg>
