<svg width="16" height="16" viewBox="0 0 16 16" fill="none" xmlns="http://www.w3.org/2000/svg">
<path d="M4.1286 14.9997H1.23087V5.65281H4.1286V14.9997ZM2.67818 4.37781C1.75158 4.37781 1 3.60906 1 2.68094C1 2.23513 1.17681 1.80757 1.49153 1.49234C1.80625 1.1771 2.2331 1 2.67818 1C3.12326 1 3.55011 1.1771 3.86483 1.49234C4.17955 1.80757 4.35635 2.23513 4.35635 2.68094C4.35635 3.60906 3.60447 4.37781 2.67818 4.37781ZM14.9739 14.9997H12.0824V10.4497C12.0824 9.36531 12.0606 7.97469 10.5758 7.97469C9.06923 7.97469 8.83836 9.15281 8.83836 10.3716V14.9997H5.94374V5.65281H8.72292V6.92781H8.76348C9.15034 6.19344 10.0954 5.41844 11.5052 5.41844C14.4379 5.41844 14.977 7.35281 14.977 9.86531V14.9997H14.9739Z" fill="#1C1C1C"/>
</svg>
