<svg xmlns="http://www.w3.org/2000/svg" width="512" height="512" fill="none" xmlns:v="https://vecta.io/nano"><g clip-path="url(#A)" fill-rule="evenodd"><path d="M817.948 256c0-310.15-251.802-561.95-561.95-561.95S-305.952-54.15-305.952 256-54.15 817.95 256 817.95 817.95 566.15 817.95 256h-.002z" fill="#004a8f"/><path d="M-44.747-322.602L455.805 543.22H-545.3l500.554-865.822z" fill="#0057a9"/><path d="M-1.54.976l373.093 646.222h-746.188L-1.54.976z" fill="#0065c3"/><g fill="#fff"><path d="M402 255.694c0-80.997-65.663-146.66-146.66-146.66v54.273c51.017 0 92.374 41.357 92.374 92.374l54.285.012z"/><path d="M182.372 136.205l81.033-46.786V183l-81.033-46.785zm-76.94 119.58c0 80.996 65.674 146.66 146.66 146.66V348.17c-51.017 0-92.374-41.357-92.374-92.374h-54.273l-.012-.012z"/><path d="M324.99 375.476l-81.033 46.787V328.7l81.033 46.786z"/></g></g><defs><clipPath id="A"><rect width="512" height="512" rx="256" fill="#fff"/></clipPath></defs></svg>